<?xml version="1.0"?>
<svg xmlns="http://www.w3.org/2000/svg" xmlns:lc="http://www.librecad.org" xmlns:xlink="http://www.w3.org/1999/xlink" width="204mm" height="241mm" viewBox="0 0 204 241">
    <g lc:layername="0" lc:is_locked="false" lc:is_construction="false" fill="none" stroke="black" stroke-width="1">
        <line x1="42" y1="30" x2="42" y2="50"/>
        <line x1="42" y1="50" x2="62" y2="50"/>
        <line x1="62" y1="50" x2="62" y2="30"/>
        <line x1="62" y1="30" x2="42" y2="30"/>
        <line x1="42" y1="50" x2="42" y2="70"/>
        <line x1="42" y1="70" x2="82" y2="70"/>
        <line x1="82" y1="70" x2="82" y2="50"/>
        <line x1="82" y1="50" x2="42" y2="50"/>
        <line x1="10.5" y1="40" x2="13.5" y2="40"/>
        <line x1="42" y1="40" x2="38" y2="43"/>
        <line x1="38" y1="43" x2="42" y2="45"/>
        <line x1="10.5" y1="40" x2="10.5" y2="45"/>
        <line x1="10.5" y1="45" x2="13.5" y2="45"/>
        <line x1="13.5" y1="45" x2="13.5" y2="40"/>
        <line x1="42" y1="40" x2="45" y2="40"/>
        <line x1="45" y1="40" x2="45" y2="33"/>
        <line x1="45" y1="33" x2="49" y2="33"/>
        <line x1="49" y1="33" x2="49" y2="30"/>
        <line x1="55" y1="30" x2="55" y2="33"/>
        <line x1="55" y1="33" x2="59" y2="33"/>
        <line x1="42" y1="45" x2="45" y2="45"/>
        <line x1="45" y1="45" x2="45" y2="47"/>
        <line x1="49" y1="67" x2="55" y2="67"/>
        <circle cx="17" cy="38" r="1.5"/>
        <circle cx="7" cy="38" r="1.5"/>
        <line x1="45" y1="53" x2="45" y2="67"/>
        <line x1="45" y1="67" x2="79" y2="67"/>
        <line x1="79" y1="67" x2="79" y2="53"/>
        <line x1="79" y1="53" x2="45" y2="53"/>
        <line x1="59" y1="53" x2="65" y2="53"/>
        <line x1="65" y1="56" x2="62" y2="56"/>
        <line x1="62" y1="56" x2="62" y2="59"/>
        <line x1="62" y1="59" x2="65" y2="59"/>
        <line x1="82" y1="47" x2="85" y2="44"/>
        <line x1="62" y1="77" x2="54" y2="77"/>
        <line x1="59" y1="62" x2="59" y2="54"/>
        <line x1="59" y1="54" x2="65" y2="54"/>
        <line x1="65" y1="54" x2="65" y2="62"/>
        <line x1="85" y1="44" x2="85" y2="50"/>
        <line x1="19" y1="30" x2="19" y2="33"/>
        <line x1="19" y1="33" x2="22" y2="33"/>
        <line x1="2" y1="33" x2="5" y2="33"/>
        <line x1="5" y1="33" x2="5" y2="30"/>
        <line x1="2" y1="30" x2="2" y2="70"/>
        <line x1="2" y1="70" x2="22" y2="70"/>
        <line x1="22" y1="80" x2="22" y2="82"/>
        <line x1="22" y1="82" x2="26" y2="82"/>
        <line x1="26" y1="82" x2="26" y2="85"/>
        <line x1="26" y1="85" x2="22" y2="85"/>
        <line x1="22" y1="85" x2="22" y2="87"/>
        <line x1="22" y1="87" x2="29" y2="87"/>
        <line x1="29" y1="87" x2="29" y2="80"/>
        <line x1="29" y1="80" x2="22" y2="80"/>
        <line x1="22" y1="30" x2="22" y2="70"/>
        <line x1="102" y1="30" x2="102" y2="70"/>
        <line x1="102" y1="70" x2="142" y2="70"/>
        <line x1="142" y1="70" x2="142" y2="50"/>
        <line x1="142" y1="50" x2="122" y2="50"/>
        <line x1="122" y1="50" x2="122" y2="30"/>
        <line x1="122" y1="30" x2="102" y2="30"/>
        <line x1="105" y1="80" x2="105" y2="100"/>
        <line x1="111" y1="80" x2="111" y2="100"/>
        <circle cx="108" cy="102.5" r="2.12132034"/>
        <circle cx="108" cy="77.5" r="2.12132034"/>
        <line x1="105" y1="77.5" x2="105" y2="80"/>
        <line x1="111" y1="80" x2="111" y2="77.5"/>
        <path d="M111,77.5 A3,3 0 0,0 105,77.5 "/>
        <line x1="105" y1="100" x2="105" y2="102.5"/>
        <line x1="111" y1="100" x2="111" y2="102.5"/>
        <path d="M105,102.5 A3,3 0 0,0 111,102.5 "/>
        <line x1="102" y1="66" x2="105" y2="66"/>
        <line x1="102" y1="63" x2="105" y2="63"/>
        <line x1="102" y1="55" x2="105" y2="55"/>
        <line x1="102" y1="58" x2="105" y2="58"/>
        <line x1="152" y1="53" x2="178" y2="53"/>
        <line x1="178" y1="53" x2="178" y2="56"/>
        <line x1="178" y1="56" x2="175" y2="56"/>
        <line x1="175" y1="56" x2="175" y2="59"/>
        <line x1="175" y1="59" x2="172" y2="59"/>
        <line x1="172" y1="59" x2="172" y2="62"/>
        <line x1="172" y1="62" x2="169" y2="62"/>
        <line x1="169" y1="62" x2="169" y2="65"/>
        <line x1="169" y1="65" x2="166" y2="65"/>
        <line x1="166" y1="65" x2="166" y2="68"/>
        <line x1="166" y1="68" x2="152" y2="68"/>
        <line x1="152" y1="68" x2="152" y2="53"/>
        <line x1="155" y1="55" x2="159" y2="55"/>
        <line x1="159" y1="55" x2="159" y2="66"/>
        <line x1="159" y1="66" x2="155" y2="66"/>
        <line x1="152" y1="59" x2="155" y2="59"/>
        <line x1="155" y1="59" x2="155" y2="55"/>
        <line x1="152" y1="62" x2="155" y2="62"/>
        <line x1="155" y1="62" x2="155" y2="66"/>
        <line x1="105" y1="55" x2="111" y2="55"/>
        <line x1="111" y1="55" x2="111" y2="58"/>
        <line x1="111" y1="58" x2="105" y2="58"/>
        <line x1="105" y1="58" x2="105" y2="63"/>
        <line x1="105" y1="63" x2="111" y2="63"/>
        <line x1="111" y1="63" x2="111" y2="66"/>
        <line x1="111" y1="66" x2="105" y2="66"/>
        <line x1="108" y1="88.5" x2="111" y2="88.5"/>
        <line x1="108" y1="88.5" x2="108" y2="91.5"/>
        <line x1="108" y1="91.5" x2="111" y2="91.5"/>
        <line x1="45" y1="47" x2="45" y2="50"/>
        <line x1="45" y1="50" x2="45" y2="67"/>
        <line x1="51" y1="67" x2="51" y2="50"/>
        <line x1="51" y1="58" x2="48" y2="58"/>
        <line x1="48" y1="58" x2="48" y2="55"/>
        <line x1="48" y1="55" x2="51" y2="55"/>
        <line x1="51" y1="63" x2="48" y2="63"/>
        <line x1="48" y1="63" x2="48" y2="66"/>
        <line x1="48" y1="66" x2="51" y2="66"/>
        <line x1="51" y1="67" x2="51" y2="70"/>
        <line x1="51" y1="70" x2="45" y2="70"/>
        <line x1="45" y1="70" x2="45" y2="67"/>
        <line x1="51" y1="50" x2="59" y2="50"/>
        <line x1="59" y1="33" x2="59" y2="37"/>
        <line x1="59" y1="43" x2="59" y2="50"/>
        <line x1="59" y1="50" x2="51" y2="50"/>
        <line x1="22" y1="50" x2="19" y2="50"/>
        <line x1="19" y1="50" x2="19" y2="55"/>
        <line x1="19" y1="55" x2="22" y2="55"/>
        <line x1="19" y1="66" x2="19" y2="70"/>
        <line x1="19" y1="66" x2="22" y2="66"/>
        <line x1="22" y1="55" x2="22" y2="54"/>
        <line x1="22" y1="54" x2="24" y2="54"/>
        <line x1="24" y1="54" x2="24" y2="67"/>
        <line x1="22" y1="67" x2="24" y2="67"/>
        <line x1="2" y1="50" x2="5" y2="50"/>
        <line x1="5" y1="50" x2="5" y2="55"/>
        <line x1="5" y1="55" x2="2" y2="55"/>
        <line x1="5" y1="66" x2="5" y2="70"/>
        <line x1="5" y1="66" x2="2" y2="66"/>
        <line x1="2" y1="55" x2="2" y2="54"/>
        <line x1="2" y1="54" x2="0" y2="54"/>
        <line x1="0" y1="54" x2="0" y2="67"/>
        <line x1="2" y1="67" x2="0" y2="67"/>
        <line x1="85" y1="50" x2="85" y2="57"/>
        <line x1="85" y1="57" x2="82" y2="60"/>
        <line x1="82" y1="47" x2="75" y2="47"/>
        <line x1="75" y1="47" x2="72" y2="50"/>
        <line x1="75" y1="50" x2="75" y2="53"/>
        <line x1="75" y1="53" x2="72" y2="53"/>
        <line x1="72" y1="53" x2="72" y2="56"/>
        <line x1="72" y1="56" x2="76" y2="56"/>
        <line x1="76" y1="56" x2="76" y2="60"/>
        <line x1="76" y1="60" x2="79" y2="60"/>
        <line x1="79" y1="60" x2="79" y2="57"/>
        <line x1="79" y1="57" x2="82" y2="57"/>
        <line x1="82" y1="57" x2="82" y2="60"/>
        <line x1="102" y1="50" x2="105" y2="50"/>
        <line x1="105" y1="50" x2="105" y2="30"/>
        <line x1="62" y1="20" x2="62" y2="0"/>
        <line x1="42" y1="3" x2="45" y2="3"/>
        <line x1="45" y1="3" x2="45" y2="17"/>
        <line x1="45" y1="17" x2="42" y2="17"/>
        <line x1="62" y1="20" x2="42" y2="20"/>
        <line x1="42" y1="0" x2="62" y2="0"/>
        <line x1="5" y1="30" x2="19" y2="30"/>
        <line x1="42" y1="90" x2="42" y2="110"/>
        <line x1="42" y1="110" x2="82" y2="110"/>
        <line x1="82" y1="110" x2="82" y2="90"/>
        <line x1="82" y1="90" x2="42" y2="90"/>
        <line x1="58" y1="102" x2="66" y2="102"/>
        <line x1="58" y1="102" x2="58" y2="106"/>
        <line x1="58" y1="106" x2="66" y2="106"/>
        <line x1="66" y1="106" x2="66" y2="102"/>
        <line x1="58" y1="98" x2="66" y2="98"/>
        <line x1="58" y1="98" x2="58" y2="94"/>
        <line x1="58" y1="94" x2="66" y2="94"/>
        <line x1="66" y1="94" x2="66" y2="98"/>
        <line x1="42" y1="3" x2="42" y2="4"/>
        <line x1="42" y1="4" x2="40" y2="4"/>
        <line x1="40" y1="4" x2="40" y2="0"/>
        <line x1="40" y1="0" x2="42" y2="0"/>
        <line x1="42" y1="17" x2="42" y2="16"/>
        <line x1="42" y1="16" x2="40" y2="16"/>
        <line x1="40" y1="16" x2="40" y2="20"/>
        <line x1="40" y1="20" x2="42" y2="20"/>
        <line x1="49" y1="8.5" x2="49" y2="11.5"/>
        <line x1="49" y1="11.5" x2="55" y2="11.5"/>
        <line x1="55" y1="11.5" x2="55" y2="8.5"/>
        <line x1="55" y1="8.5" x2="49" y2="8.5"/>
        <line x1="105" y1="33" x2="109" y2="33"/>
        <line x1="109" y1="33" x2="109" y2="30"/>
        <line x1="115" y1="30" x2="115" y2="33"/>
        <line x1="115" y1="33" x2="119" y2="33"/>
        <line x1="42" y1="98.5" x2="51" y2="98.5"/>
        <line x1="51" y1="98.5" x2="51" y2="101.5"/>
        <line x1="51" y1="101.5" x2="42" y2="101.5"/>
        <line x1="62" y1="73" x2="59" y2="73"/>
        <line x1="62" y1="73" x2="62" y2="70"/>
        <line x1="62" y1="70" x2="59" y2="70"/>
        <line x1="59" y1="70" x2="59" y2="62"/>
        <line x1="59" y1="75" x2="59" y2="73"/>
        <line x1="62" y1="79" x2="62" y2="82"/>
        <line x1="62" y1="77" x2="65" y2="77"/>
        <line x1="65" y1="77" x2="65" y2="79"/>
        <line x1="65" y1="79" x2="62" y2="79"/>
        <line x1="62" y1="82" x2="65" y2="82"/>
        <line x1="65" y1="82" x2="65" y2="84"/>
        <line x1="65" y1="84" x2="54" y2="84"/>
        <line x1="54" y1="77" x2="54" y2="80"/>
        <line x1="54" y1="80" x2="59" y2="80"/>
        <line x1="59" y1="80" x2="59" y2="81"/>
        <line x1="59" y1="81" x2="54" y2="81"/>
        <line x1="54" y1="81" x2="54" y2="84"/>
        <line x1="49" y1="20" x2="49" y2="17"/>
        <line x1="49" y1="17" x2="55" y2="17"/>
        <line x1="55" y1="17" x2="55" y2="20"/>
        <line x1="122" y1="0" x2="122" y2="20"/>
        <line x1="122" y1="20" x2="142" y2="20"/>
        <line x1="142" y1="20" x2="142" y2="0"/>
        <line x1="142" y1="0" x2="122" y2="0"/>
        <line x1="122" y1="6" x2="125" y2="6"/>
        <line x1="125" y1="6" x2="125" y2="0"/>
        <line x1="122" y1="14" x2="125" y2="14"/>
        <line x1="125" y1="14" x2="125" y2="20"/>
        <line x1="139" y1="0" x2="139" y2="6"/>
        <line x1="139" y1="6" x2="142" y2="6"/>
        <line x1="142" y1="14" x2="139" y2="14"/>
        <line x1="139" y1="14" x2="139" y2="20"/>
        <line x1="119" y1="33" x2="122" y2="33"/>
        <line x1="122" y1="33" x2="124" y2="33"/>
        <line x1="124" y1="33" x2="124" y2="37"/>
        <line x1="124" y1="37" x2="122" y2="37"/>
        <line x1="122" y1="37" x2="122" y2="36"/>
        <line x1="122" y1="36" x2="119" y2="36"/>
        <line x1="119" y1="36" x2="119" y2="44"/>
        <line x1="119" y1="44" x2="122" y2="44"/>
        <line x1="122" y1="44" x2="122" y2="43"/>
        <line x1="122" y1="43" x2="124" y2="43"/>
        <line x1="124" y1="43" x2="124" y2="48"/>
        <line x1="124" y1="48" x2="129" y2="48"/>
        <line x1="129" y1="48" x2="129" y2="50"/>
        <line x1="129" y1="50" x2="128" y2="50"/>
        <line x1="128" y1="50" x2="128" y2="53"/>
        <line x1="128" y1="53" x2="136" y2="53"/>
        <line x1="136" y1="53" x2="136" y2="50"/>
        <line x1="136" y1="50" x2="135" y2="50"/>
        <line x1="135" y1="50" x2="135" y2="48"/>
        <line x1="135" y1="48" x2="142" y2="48"/>
        <line x1="142" y1="48" x2="142" y2="50"/>
        <circle cx="52" cy="29" r="1"/>
        <line x1="59" y1="37" x2="59" y2="43"/>
        <line x1="65" y1="62" x2="65" y2="70"/>
        <line x1="65" y1="70" x2="69" y2="70"/>
        <line x1="69" y1="75" x2="69" y2="70"/>
        <line x1="59" y1="75" x2="65" y2="75"/>
        <line x1="65" y1="75" x2="65" y2="73"/>
        <line x1="65" y1="73" x2="69" y2="73"/>
        <line x1="62" y1="3" x2="59" y2="3"/>
        <line x1="59" y1="3" x2="59" y2="17"/>
        <line x1="59" y1="17" x2="62" y2="17"/>
        <line x1="49" y1="30" x2="49" y2="29"/>
        <line x1="55" y1="30" x2="55" y2="29"/>
        <path d="M55,29 A3,3 0 0,0 49,29 "/>
        <line x1="72" y1="50" x2="75" y2="50"/>
        <line x1="72" y1="53" x2="75" y2="53"/>
        <line x1="79" y1="57" x2="79" y2="60"/>
        <line x1="82" y1="57" x2="82" y2="60"/>
        <line x1="82" y1="27" x2="85" y2="24"/>
        <line x1="85" y1="24" x2="85" y2="30"/>
        <line x1="85" y1="30" x2="85" y2="37"/>
        <line x1="85" y1="37" x2="82" y2="40"/>
        <line x1="82" y1="27" x2="75" y2="27"/>
        <line x1="75" y1="27" x2="72" y2="30"/>
        <line x1="75" y1="30" x2="75" y2="33"/>
        <line x1="75" y1="33" x2="72" y2="33"/>
        <line x1="72" y1="33" x2="72" y2="36"/>
        <line x1="72" y1="36" x2="76" y2="36"/>
        <line x1="76" y1="36" x2="76" y2="40"/>
        <line x1="76" y1="40" x2="79" y2="40"/>
        <line x1="79" y1="40" x2="79" y2="37"/>
        <line x1="79" y1="37" x2="82" y2="37"/>
        <line x1="72" y1="30" x2="75" y2="30"/>
        <line x1="72" y1="33" x2="75" y2="33"/>
        <line x1="79" y1="37" x2="79" y2="40"/>
        <line x1="82" y1="37" x2="82" y2="40"/>
        <line x1="142" y1="56" x2="139" y2="56"/>
        <line x1="139" y1="56" x2="139" y2="64"/>
        <line x1="139" y1="64" x2="142" y2="64"/>
        <line x1="182" y1="50" x2="182" y2="70"/>
        <line x1="182" y1="70" x2="202" y2="70"/>
        <line x1="202" y1="70" x2="202" y2="50"/>
        <line x1="202" y1="50" x2="182" y2="50"/>
        <line x1="182" y1="56" x2="182" y2="55"/>
        <line x1="182" y1="55" x2="180" y2="55"/>
        <line x1="180" y1="55" x2="180" y2="65"/>
        <line x1="180" y1="65" x2="182" y2="65"/>
        <line x1="182" y1="65" x2="182" y2="64"/>
        <line x1="182" y1="64" x2="185" y2="64"/>
        <line x1="182" y1="55" x2="182" y2="56"/>
        <line x1="182" y1="56" x2="185" y2="56"/>
        <line x1="185" y1="56" x2="185" y2="50"/>
        <line x1="185" y1="64" x2="185" y2="70"/>
        <line x1="190.5" y1="57" x2="193.5" y2="57"/>
        <line x1="193.5" y1="57" x2="193.5" y2="50"/>
        <line x1="190.5" y1="57" x2="190.5" y2="50"/>
        <line x1="202" y1="56" x2="202" y2="55"/>
        <line x1="202" y1="55" x2="204" y2="55"/>
        <line x1="204" y1="55" x2="204" y2="65"/>
        <line x1="204" y1="65" x2="202" y2="65"/>
        <line x1="202" y1="65" x2="202" y2="64"/>
        <line x1="202" y1="64" x2="199" y2="64"/>
        <line x1="202" y1="55" x2="202" y2="56"/>
        <line x1="202" y1="56" x2="199" y2="56"/>
        <line x1="199" y1="56" x2="199" y2="50"/>
        <line x1="199" y1="64" x2="199" y2="70"/>
        <line x1="49" y1="0" x2="49" y2="3"/>
        <line x1="49" y1="3" x2="55" y2="3"/>
        <line x1="55" y1="3" x2="55" y2="0"/>
        <line x1="152" y1="0" x2="152" y2="20"/>
        <line x1="152" y1="20" x2="172" y2="20"/>
        <line x1="172" y1="20" x2="172" y2="0"/>
        <line x1="172" y1="0" x2="152" y2="0"/>
        <line x1="152" y1="6" x2="155" y2="6"/>
        <line x1="155" y1="6" x2="155" y2="0"/>
        <line x1="152" y1="14" x2="155" y2="14"/>
        <line x1="155" y1="14" x2="155" y2="20"/>
        <line x1="169" y1="0" x2="169" y2="6"/>
        <line x1="169" y1="6" x2="172" y2="6"/>
        <line x1="172" y1="14" x2="169" y2="14"/>
        <line x1="169" y1="14" x2="169" y2="20"/>
        <line x1="160.5" y1="13" x2="163.5" y2="13"/>
        <line x1="163.5" y1="13" x2="163.5" y2="20"/>
        <line x1="160.5" y1="20" x2="160.5" y2="13"/>
        <line x1="185" y1="67" x2="188" y2="67"/>
        <line x1="188" y1="67" x2="188" y2="70"/>
        <line x1="188" y1="70" x2="187" y2="70"/>
        <line x1="187" y1="70" x2="187" y2="72"/>
        <line x1="187" y1="72" x2="197" y2="72"/>
        <line x1="197" y1="72" x2="197" y2="70"/>
        <line x1="197" y1="70" x2="196" y2="70"/>
        <line x1="196" y1="70" x2="196" y2="67"/>
        <line x1="196" y1="67" x2="199" y2="67"/>
        <line x1="185" y1="53" x2="191" y2="53"/>
        <line x1="191" y1="53" x2="199" y2="53"/>
        <line x1="82" y1="210" x2="82" y2="190"/>
        <line x1="42" y1="206" x2="45" y2="206"/>
        <line x1="42" y1="203" x2="45" y2="203"/>
        <line x1="42" y1="195" x2="45" y2="195"/>
        <line x1="42" y1="198" x2="45" y2="198"/>
        <line x1="45" y1="195" x2="51" y2="195"/>
        <line x1="51" y1="195" x2="51" y2="198"/>
        <line x1="51" y1="198" x2="45" y2="198"/>
        <line x1="45" y1="198" x2="45" y2="203"/>
        <line x1="45" y1="203" x2="51" y2="203"/>
        <line x1="51" y1="203" x2="51" y2="206"/>
        <line x1="51" y1="206" x2="45" y2="206"/>
        <line x1="42" y1="190" x2="45" y2="190"/>
        <line x1="45" y1="173" x2="49" y2="173"/>
        <line x1="49" y1="173" x2="49" y2="170"/>
        <line x1="55" y1="170" x2="55" y2="173"/>
        <line x1="55" y1="173" x2="59" y2="173"/>
        <line x1="59" y1="173" x2="62" y2="173"/>
        <line x1="62" y1="173" x2="64" y2="173"/>
        <line x1="64" y1="173" x2="64" y2="177"/>
        <line x1="64" y1="177" x2="62" y2="177"/>
        <line x1="62" y1="177" x2="62" y2="176"/>
        <line x1="62" y1="176" x2="59" y2="176"/>
        <line x1="59" y1="176" x2="59" y2="184"/>
        <line x1="59" y1="184" x2="62" y2="184"/>
        <line x1="62" y1="184" x2="62" y2="183"/>
        <line x1="62" y1="183" x2="64" y2="183"/>
        <line x1="64" y1="183" x2="64" y2="188"/>
        <line x1="64" y1="188" x2="69" y2="188"/>
        <line x1="69" y1="188" x2="69" y2="190"/>
        <line x1="69" y1="190" x2="68" y2="190"/>
        <line x1="68" y1="190" x2="68" y2="193"/>
        <line x1="68" y1="193" x2="76" y2="193"/>
        <line x1="76" y1="193" x2="76" y2="190"/>
        <line x1="76" y1="190" x2="75" y2="190"/>
        <line x1="75" y1="190" x2="75" y2="188"/>
        <line x1="75" y1="188" x2="82" y2="188"/>
        <line x1="82" y1="188" x2="82" y2="190"/>
        <line x1="82" y1="196" x2="79" y2="196"/>
        <line x1="79" y1="196" x2="79" y2="204"/>
        <line x1="79" y1="204" x2="82" y2="204"/>
        <line x1="49" y1="170" x2="55" y2="170"/>
        <line x1="42" y1="190" x2="42" y2="210"/>
        <line x1="45" y1="173" x2="45" y2="190"/>
        <line x1="42" y1="220" x2="42" y2="240"/>
        <line x1="42" y1="240" x2="82" y2="240"/>
        <line x1="82" y1="240" x2="82" y2="220"/>
        <line x1="82" y1="220" x2="42" y2="220"/>
        <line x1="42" y1="228.5" x2="51" y2="228.5"/>
        <line x1="51" y1="228.5" x2="51" y2="231.5"/>
        <line x1="51" y1="231.5" x2="42" y2="231.5"/>
        <line x1="62" y1="160" x2="62" y2="140"/>
        <line x1="42" y1="143" x2="45" y2="143"/>
        <line x1="45" y1="143" x2="45" y2="157"/>
        <line x1="45" y1="157" x2="42" y2="157"/>
        <line x1="42" y1="143" x2="42" y2="144"/>
        <line x1="42" y1="144" x2="40" y2="144"/>
        <line x1="40" y1="144" x2="40" y2="140"/>
        <line x1="42" y1="157" x2="42" y2="156"/>
        <line x1="42" y1="156" x2="40" y2="156"/>
        <line x1="40" y1="156" x2="40" y2="160"/>
        <line x1="49" y1="148.5" x2="49" y2="151.5"/>
        <line x1="49" y1="151.5" x2="55" y2="151.5"/>
        <line x1="55" y1="151.5" x2="55" y2="148.5"/>
        <line x1="55" y1="148.5" x2="49" y2="148.5"/>
        <line x1="49" y1="160" x2="49" y2="157"/>
        <line x1="49" y1="157" x2="55" y2="157"/>
        <line x1="55" y1="157" x2="55" y2="160"/>
        <line x1="62" y1="143" x2="59" y2="143"/>
        <line x1="59" y1="143" x2="59" y2="157"/>
        <line x1="59" y1="157" x2="62" y2="157"/>
        <line x1="49" y1="140" x2="49" y2="143"/>
        <line x1="49" y1="143" x2="55" y2="143"/>
        <line x1="55" y1="143" x2="55" y2="140"/>
        <line x1="40" y1="140" x2="40" y2="138"/>
        <line x1="40" y1="138" x2="50" y2="138"/>
        <line x1="50" y1="138" x2="50" y2="140"/>
        <line x1="50" y1="140" x2="49" y2="140"/>
        <line x1="55" y1="140" x2="54" y2="140"/>
        <line x1="54" y1="140" x2="54" y2="138"/>
        <line x1="54" y1="138" x2="62" y2="138"/>
        <line x1="62" y1="138" x2="62" y2="140"/>
        <line x1="62" y1="160" x2="62" y2="162"/>
        <line x1="62" y1="162" x2="54" y2="162"/>
        <line x1="54" y1="162" x2="54" y2="160"/>
        <line x1="54" y1="160" x2="55" y2="160"/>
        <line x1="50" y1="160" x2="49" y2="160"/>
        <line x1="50" y1="160" x2="50" y2="162"/>
        <line x1="50" y1="162" x2="40" y2="162"/>
        <line x1="40" y1="162" x2="40" y2="160"/>
        <line x1="72" y1="140" x2="72" y2="160"/>
        <line x1="72" y1="160" x2="92" y2="160"/>
        <line x1="92" y1="160" x2="92" y2="140"/>
        <line x1="92" y1="140" x2="72" y2="140"/>
        <line x1="72" y1="146" x2="75" y2="146"/>
        <line x1="75" y1="146" x2="75" y2="140"/>
        <line x1="72" y1="154" x2="75" y2="154"/>
        <line x1="75" y1="154" x2="75" y2="160"/>
        <line x1="89" y1="140" x2="89" y2="146"/>
        <line x1="89" y1="146" x2="92" y2="146"/>
        <line x1="92" y1="154" x2="89" y2="154"/>
        <line x1="89" y1="154" x2="89" y2="160"/>
        <line x1="92" y1="196" x2="92" y2="195"/>
        <line x1="92" y1="195" x2="90" y2="195"/>
        <line x1="90" y1="195" x2="90" y2="205"/>
        <line x1="90" y1="205" x2="92" y2="205"/>
        <line x1="92" y1="205" x2="92" y2="204"/>
        <line x1="92" y1="204" x2="95" y2="204"/>
        <line x1="92" y1="195" x2="92" y2="196"/>
        <line x1="92" y1="196" x2="95" y2="196"/>
        <line x1="100.5" y1="197" x2="103.5" y2="197"/>
        <line x1="112" y1="196" x2="112" y2="195"/>
        <line x1="112" y1="195" x2="114" y2="195"/>
        <line x1="114" y1="195" x2="114" y2="205"/>
        <line x1="114" y1="205" x2="112" y2="205"/>
        <line x1="112" y1="205" x2="112" y2="204"/>
        <line x1="112" y1="204" x2="109" y2="204"/>
        <line x1="112" y1="195" x2="112" y2="196"/>
        <line x1="112" y1="196" x2="109" y2="196"/>
        <line x1="95" y1="193" x2="101" y2="193"/>
        <line x1="101" y1="193" x2="109" y2="193"/>
        <line x1="92" y1="170" x2="92" y2="190"/>
        <line x1="92" y1="190" x2="112" y2="190"/>
        <line x1="112" y1="190" x2="112" y2="170"/>
        <line x1="112" y1="170" x2="92" y2="170"/>
        <line x1="92" y1="176" x2="95" y2="176"/>
        <line x1="95" y1="176" x2="95" y2="170"/>
        <line x1="92" y1="184" x2="95" y2="184"/>
        <line x1="95" y1="184" x2="95" y2="190"/>
        <line x1="109" y1="170" x2="109" y2="176"/>
        <line x1="109" y1="176" x2="112" y2="176"/>
        <line x1="112" y1="184" x2="109" y2="184"/>
        <line x1="109" y1="184" x2="109" y2="190"/>
        <line x1="100.5" y1="183" x2="103.5" y2="183"/>
        <line x1="103.5" y1="183" x2="103.5" y2="190"/>
        <line x1="100.5" y1="190" x2="100.5" y2="183"/>
        <line x1="82" y1="167" x2="85" y2="164"/>
        <line x1="85" y1="164" x2="85" y2="170"/>
        <line x1="85" y1="170" x2="85" y2="177"/>
        <line x1="85" y1="177" x2="82" y2="180"/>
        <line x1="82" y1="167" x2="75" y2="167"/>
        <line x1="75" y1="167" x2="72" y2="170"/>
        <line x1="75" y1="170" x2="75" y2="173"/>
        <line x1="75" y1="173" x2="72" y2="173"/>
        <line x1="72" y1="173" x2="72" y2="176"/>
        <line x1="72" y1="176" x2="76" y2="176"/>
        <line x1="76" y1="176" x2="76" y2="180"/>
        <line x1="76" y1="180" x2="79" y2="180"/>
        <line x1="79" y1="180" x2="79" y2="177"/>
        <line x1="79" y1="177" x2="82" y2="177"/>
        <line x1="72" y1="170" x2="75" y2="170"/>
        <line x1="72" y1="173" x2="75" y2="173"/>
        <line x1="79" y1="177" x2="79" y2="180"/>
        <line x1="82" y1="177" x2="82" y2="180"/>
        <line x1="58" y1="229" x2="66" y2="229"/>
        <line x1="58" y1="231" x2="66" y2="231"/>
        <line x1="42" y1="223" x2="55" y2="223"/>
        <line x1="55" y1="223" x2="55" y2="220"/>
        <line x1="55" y1="207" x2="55" y2="210"/>
        <line x1="55" y1="207" x2="69" y2="207"/>
        <line x1="69" y1="207" x2="69" y2="210"/>
        <line x1="42" y1="237" x2="55" y2="237"/>
        <line x1="55" y1="237" x2="55" y2="240"/>
        <line x1="69" y1="240" x2="69" y2="237"/>
        <line x1="69" y1="237" x2="82" y2="237"/>
        <line x1="55" y1="210" x2="56" y2="210"/>
        <line x1="56" y1="210" x2="56" y2="212"/>
        <line x1="56" y1="212" x2="42" y2="212"/>
        <line x1="42" y1="212" x2="42" y2="210"/>
        <line x1="69" y1="210" x2="68" y2="210"/>
        <line x1="68" y1="210" x2="68" y2="212"/>
        <line x1="68" y1="212" x2="82" y2="212"/>
        <line x1="82" y1="212" x2="82" y2="210"/>
        <line x1="82" y1="227" x2="79" y2="227"/>
        <line x1="79" y1="227" x2="79" y2="233"/>
        <line x1="79" y1="233" x2="82" y2="233"/>
        <line x1="69" y1="220" x2="69" y2="223"/>
        <line x1="99" y1="207" x2="99" y2="210"/>
        <line x1="99" y1="210" x2="98" y2="210"/>
        <line x1="98" y1="210" x2="98" y2="212"/>
        <line x1="98" y1="212" x2="106" y2="212"/>
        <line x1="106" y1="212" x2="106" y2="210"/>
        <line x1="106" y1="210" x2="105" y2="210"/>
        <line x1="105" y1="210" x2="105" y2="207"/>
        <line x1="99" y1="207" x2="95" y2="207"/>
        <line x1="105" y1="207" x2="109" y2="207"/>
        <line x1="109" y1="204" x2="109" y2="207"/>
        <line x1="95" y1="204" x2="95" y2="207"/>
        <line x1="100.5" y1="197" x2="100.5" y2="193"/>
        <line x1="103.5" y1="197" x2="103.5" y2="193"/>
        <line x1="95" y1="196" x2="95" y2="193"/>
        <line x1="109" y1="196" x2="109" y2="193"/>
        <line x1="69" y1="223" x2="82" y2="223"/>
        <line x1="122" y1="210" x2="122" y2="190"/>
        <line x1="162" y1="206" x2="159" y2="206"/>
        <line x1="162" y1="203" x2="159" y2="203"/>
        <line x1="162" y1="195" x2="159" y2="195"/>
        <line x1="162" y1="198" x2="159" y2="198"/>
        <line x1="159" y1="195" x2="153" y2="195"/>
        <line x1="153" y1="195" x2="153" y2="198"/>
        <line x1="153" y1="198" x2="159" y2="198"/>
        <line x1="159" y1="198" x2="159" y2="203"/>
        <line x1="159" y1="203" x2="153" y2="203"/>
        <line x1="153" y1="203" x2="153" y2="206"/>
        <line x1="153" y1="206" x2="159" y2="206"/>
        <line x1="162" y1="190" x2="159" y2="190"/>
        <line x1="159" y1="173" x2="155" y2="173"/>
        <line x1="155" y1="173" x2="155" y2="170"/>
        <line x1="149" y1="170" x2="149" y2="173"/>
        <line x1="149" y1="173" x2="145" y2="173"/>
        <line x1="145" y1="173" x2="142" y2="173"/>
        <line x1="142" y1="173" x2="140" y2="173"/>
        <line x1="140" y1="173" x2="140" y2="177"/>
        <line x1="140" y1="177" x2="142" y2="177"/>
        <line x1="142" y1="177" x2="142" y2="176"/>
        <line x1="142" y1="176" x2="145" y2="176"/>
        <line x1="145" y1="176" x2="145" y2="184"/>
        <line x1="145" y1="184" x2="142" y2="184"/>
        <line x1="142" y1="184" x2="142" y2="183"/>
        <line x1="142" y1="183" x2="140" y2="183"/>
        <line x1="140" y1="183" x2="140" y2="188"/>
        <line x1="140" y1="188" x2="135" y2="188"/>
        <line x1="135" y1="188" x2="135" y2="190"/>
        <line x1="135" y1="190" x2="136" y2="190"/>
        <line x1="136" y1="190" x2="136" y2="193"/>
        <line x1="136" y1="193" x2="128" y2="193"/>
        <line x1="128" y1="193" x2="128" y2="190"/>
        <line x1="128" y1="190" x2="129" y2="190"/>
        <line x1="129" y1="190" x2="129" y2="188"/>
        <line x1="129" y1="188" x2="122" y2="188"/>
        <line x1="122" y1="188" x2="122" y2="190"/>
        <line x1="122" y1="196" x2="125" y2="196"/>
        <line x1="125" y1="196" x2="125" y2="204"/>
        <line x1="125" y1="204" x2="122" y2="204"/>
        <line x1="155" y1="170" x2="149" y2="170"/>
        <line x1="162" y1="190" x2="162" y2="210"/>
        <line x1="159" y1="173" x2="159" y2="190"/>
        <line x1="149" y1="207" x2="149" y2="210"/>
        <line x1="149" y1="207" x2="135" y2="207"/>
        <line x1="135" y1="207" x2="135" y2="210"/>
        <line x1="149" y1="210" x2="148" y2="210"/>
        <line x1="148" y1="210" x2="148" y2="212"/>
        <line x1="148" y1="212" x2="162" y2="212"/>
        <line x1="162" y1="212" x2="162" y2="210"/>
        <line x1="135" y1="210" x2="136" y2="210"/>
        <line x1="136" y1="210" x2="136" y2="212"/>
        <line x1="136" y1="212" x2="122" y2="212"/>
        <line x1="122" y1="212" x2="122" y2="210"/>
        <line x1="92" y1="226" x2="112" y2="226"/>
        <line x1="92" y1="220" x2="112" y2="220"/>
        <circle cx="114.5" cy="223" r="2.12132034"/>
        <circle cx="89.5" cy="223" r="2.12132034"/>
        <line x1="89.5" y1="226" x2="92" y2="226"/>
        <line x1="92" y1="220" x2="89.5" y2="220"/>
        <path d="M89.5,220 A3,3 0 0,0 89.5,226 "/>
        <line x1="112" y1="226" x2="114.5" y2="226"/>
        <line x1="112" y1="220" x2="114.5" y2="220"/>
        <path d="M114.5,226 A3,3 0 0,0 114.5,220 "/>
        <line x1="100.5" y1="223" x2="100.5" y2="220"/>
        <line x1="100.5" y1="223" x2="103.5" y2="223"/>
        <line x1="103.5" y1="223" x2="103.5" y2="220"/>
        <line x1="92" y1="236" x2="112" y2="236"/>
        <line x1="92" y1="230" x2="112" y2="230"/>
        <circle cx="114.5" cy="233" r="2.12132034"/>
        <circle cx="89.5" cy="233" r="2.12132034"/>
        <line x1="89.5" y1="236" x2="92" y2="236"/>
        <line x1="92" y1="230" x2="89.5" y2="230"/>
        <path d="M89.5,230 A3,3 0 0,0 89.5,236 "/>
        <line x1="112" y1="236" x2="114.5" y2="236"/>
        <line x1="112" y1="230" x2="114.5" y2="230"/>
        <path d="M114.5,236 A3,3 0 0,0 114.5,230 "/>
        <line x1="100.5" y1="233" x2="100.5" y2="230"/>
        <line x1="100.5" y1="233" x2="103.5" y2="233"/>
        <line x1="103.5" y1="233" x2="103.5" y2="230"/>
        <line x1="102" y1="143" x2="128" y2="143"/>
        <line x1="128" y1="143" x2="128" y2="146"/>
        <line x1="128" y1="146" x2="125" y2="146"/>
        <line x1="125" y1="146" x2="125" y2="149"/>
        <line x1="125" y1="149" x2="122" y2="149"/>
        <line x1="122" y1="149" x2="122" y2="152"/>
        <line x1="122" y1="152" x2="119" y2="152"/>
        <line x1="119" y1="152" x2="119" y2="155"/>
        <line x1="119" y1="155" x2="116" y2="155"/>
        <line x1="116" y1="155" x2="116" y2="158"/>
        <line x1="116" y1="158" x2="102" y2="158"/>
        <line x1="102" y1="158" x2="102" y2="143"/>
        <line x1="162" y1="143" x2="136" y2="143"/>
        <line x1="136" y1="143" x2="136" y2="146"/>
        <line x1="136" y1="146" x2="139" y2="146"/>
        <line x1="139" y1="146" x2="139" y2="149"/>
        <line x1="139" y1="149" x2="142" y2="149"/>
        <line x1="142" y1="149" x2="142" y2="152"/>
        <line x1="142" y1="152" x2="145" y2="152"/>
        <line x1="145" y1="152" x2="145" y2="155"/>
        <line x1="145" y1="155" x2="148" y2="155"/>
        <line x1="148" y1="155" x2="148" y2="158"/>
        <line x1="148" y1="158" x2="162" y2="158"/>
        <line x1="162" y1="158" x2="162" y2="143"/>
        <line x1="128" y1="222" x2="125" y2="222"/>
        <line x1="125" y1="222" x2="125" y2="225"/>
        <line x1="125" y1="225" x2="128" y2="225"/>
        <line x1="122" y1="228" x2="122" y2="220"/>
        <line x1="122" y1="220" x2="128" y2="220"/>
        <line x1="128" y1="220" x2="128" y2="228"/>
        <line x1="125" y1="239" x2="122" y2="239"/>
        <line x1="125" y1="239" x2="125" y2="236"/>
        <line x1="125" y1="236" x2="122" y2="236"/>
        <line x1="122" y1="236" x2="122" y2="228"/>
        <line x1="122" y1="241" x2="122" y2="239"/>
        <line x1="128" y1="228" x2="128" y2="236"/>
        <line x1="128" y1="236" x2="132" y2="236"/>
        <line x1="132" y1="241" x2="132" y2="236"/>
        <line x1="122" y1="241" x2="128" y2="241"/>
        <line x1="128" y1="241" x2="128" y2="239"/>
        <line x1="128" y1="239" x2="132" y2="239"/>
        <line x1="138" y1="222" x2="135" y2="222"/>
        <line x1="135" y1="222" x2="135" y2="225"/>
        <line x1="135" y1="225" x2="138" y2="225"/>
        <line x1="132" y1="228" x2="132" y2="220"/>
        <line x1="132" y1="220" x2="138" y2="220"/>
        <line x1="138" y1="220" x2="138" y2="228"/>
        <line x1="135" y1="239" x2="132" y2="239"/>
        <line x1="135" y1="239" x2="135" y2="236"/>
        <line x1="135" y1="236" x2="132" y2="236"/>
        <line x1="132" y1="236" x2="132" y2="228"/>
        <line x1="132" y1="241" x2="132" y2="239"/>
        <line x1="138" y1="228" x2="138" y2="236"/>
        <line x1="138" y1="236" x2="142" y2="236"/>
        <line x1="142" y1="241" x2="142" y2="236"/>
        <line x1="132" y1="241" x2="138" y2="241"/>
        <line x1="138" y1="241" x2="138" y2="239"/>
        <line x1="138" y1="239" x2="142" y2="239"/>
        <line x1="127" y1="150" x2="127" y2="152"/>
        <line x1="127" y1="152" x2="131" y2="152"/>
        <line x1="131" y1="152" x2="131" y2="155"/>
        <line x1="131" y1="155" x2="127" y2="155"/>
        <line x1="127" y1="155" x2="127" y2="157"/>
        <line x1="127" y1="157" x2="134" y2="157"/>
        <line x1="134" y1="157" x2="134" y2="150"/>
        <line x1="134" y1="150" x2="127" y2="150"/>
        <line x1="127" y1="160" x2="127" y2="162"/>
        <line x1="127" y1="162" x2="131" y2="162"/>
        <line x1="131" y1="162" x2="131" y2="165"/>
        <line x1="131" y1="165" x2="127" y2="165"/>
        <line x1="127" y1="165" x2="127" y2="167"/>
        <line x1="127" y1="167" x2="134" y2="167"/>
        <line x1="134" y1="167" x2="134" y2="160"/>
        <line x1="134" y1="160" x2="127" y2="160"/>
        <line x1="160" y1="220" x2="152" y2="220"/>
        <line x1="160" y1="222" x2="160" y2="225"/>
        <line x1="160" y1="220" x2="163" y2="220"/>
        <line x1="163" y1="220" x2="163" y2="222"/>
        <line x1="163" y1="222" x2="160" y2="222"/>
        <line x1="160" y1="225" x2="163" y2="225"/>
        <line x1="163" y1="225" x2="163" y2="227"/>
        <line x1="163" y1="227" x2="152" y2="227"/>
        <line x1="152" y1="220" x2="152" y2="223"/>
        <line x1="152" y1="223" x2="157" y2="223"/>
        <line x1="157" y1="223" x2="157" y2="224"/>
        <line x1="157" y1="224" x2="152" y2="224"/>
        <line x1="152" y1="224" x2="152" y2="227"/>
        <line x1="160" y1="230" x2="152" y2="230"/>
        <line x1="160" y1="232" x2="160" y2="235"/>
        <line x1="160" y1="230" x2="163" y2="230"/>
        <line x1="163" y1="230" x2="163" y2="232"/>
        <line x1="163" y1="232" x2="160" y2="232"/>
        <line x1="160" y1="235" x2="163" y2="235"/>
        <line x1="163" y1="235" x2="163" y2="237"/>
        <line x1="163" y1="237" x2="152" y2="237"/>
        <line x1="152" y1="230" x2="152" y2="233"/>
        <line x1="152" y1="233" x2="157" y2="233"/>
        <line x1="157" y1="233" x2="157" y2="234"/>
        <line x1="157" y1="234" x2="152" y2="234"/>
        <line x1="152" y1="234" x2="152" y2="237"/>
        <line x1="45" y1="223" x2="45" y2="237"/>
        <line x1="142" y1="120" x2="182" y2="120"/>
        <line x1="182" y1="120" x2="182" y2="100"/>
        <line x1="142" y1="116" x2="145" y2="116"/>
        <line x1="142" y1="113" x2="145" y2="113"/>
        <line x1="142" y1="105" x2="145" y2="105"/>
        <line x1="142" y1="108" x2="145" y2="108"/>
        <line x1="145" y1="105" x2="151" y2="105"/>
        <line x1="151" y1="105" x2="151" y2="108"/>
        <line x1="151" y1="108" x2="145" y2="108"/>
        <line x1="145" y1="108" x2="145" y2="113"/>
        <line x1="145" y1="113" x2="151" y2="113"/>
        <line x1="151" y1="113" x2="151" y2="116"/>
        <line x1="151" y1="116" x2="145" y2="116"/>
        <line x1="142" y1="100" x2="145" y2="100"/>
        <line x1="145" y1="83" x2="149" y2="83"/>
        <line x1="149" y1="83" x2="149" y2="80"/>
        <line x1="155" y1="80" x2="155" y2="83"/>
        <line x1="155" y1="83" x2="159" y2="83"/>
        <line x1="159" y1="83" x2="162" y2="83"/>
        <line x1="162" y1="83" x2="164" y2="83"/>
        <line x1="164" y1="83" x2="164" y2="87"/>
        <line x1="164" y1="87" x2="162" y2="87"/>
        <line x1="162" y1="87" x2="162" y2="86"/>
        <line x1="162" y1="86" x2="159" y2="86"/>
        <line x1="159" y1="86" x2="159" y2="94"/>
        <line x1="159" y1="94" x2="162" y2="94"/>
        <line x1="162" y1="94" x2="162" y2="93"/>
        <line x1="162" y1="93" x2="164" y2="93"/>
        <line x1="164" y1="93" x2="164" y2="98"/>
        <line x1="164" y1="98" x2="169" y2="98"/>
        <line x1="169" y1="98" x2="169" y2="100"/>
        <line x1="169" y1="100" x2="168" y2="100"/>
        <line x1="168" y1="100" x2="168" y2="103"/>
        <line x1="168" y1="103" x2="176" y2="103"/>
        <line x1="176" y1="103" x2="176" y2="100"/>
        <line x1="176" y1="100" x2="175" y2="100"/>
        <line x1="175" y1="100" x2="175" y2="98"/>
        <line x1="175" y1="98" x2="182" y2="98"/>
        <line x1="182" y1="98" x2="182" y2="100"/>
        <line x1="182" y1="106" x2="179" y2="106"/>
        <line x1="179" y1="106" x2="179" y2="114"/>
        <line x1="179" y1="114" x2="182" y2="114"/>
        <line x1="149" y1="80" x2="155" y2="80"/>
        <line x1="142" y1="100" x2="142" y2="120"/>
        <line x1="145" y1="83" x2="145" y2="100"/>
        <line x1="58" y1="229" x2="58" y2="224"/>
        <line x1="58" y1="224" x2="66" y2="224"/>
        <line x1="66" y1="224" x2="66" y2="229"/>
        <line x1="58" y1="231" x2="58" y2="236"/>
        <line x1="58" y1="236" x2="66" y2="236"/>
        <line x1="66" y1="236" x2="66" y2="231"/>
        <line x1="20.5" y1="150" x2="23.5" y2="150"/>
        <line x1="20.5" y1="150" x2="20.5" y2="155"/>
        <line x1="20.5" y1="155" x2="23.5" y2="155"/>
        <line x1="23.5" y1="155" x2="23.5" y2="150"/>
        <line x1="29" y1="140" x2="29" y2="143"/>
        <line x1="29" y1="143" x2="32" y2="143"/>
        <line x1="12" y1="143" x2="15" y2="143"/>
        <line x1="15" y1="143" x2="15" y2="140"/>
        <line x1="12" y1="180" x2="32" y2="180"/>
        <line x1="32" y1="160" x2="29" y2="160"/>
        <line x1="29" y1="160" x2="29" y2="165"/>
        <line x1="29" y1="165" x2="32" y2="165"/>
        <line x1="29" y1="176" x2="29" y2="180"/>
        <line x1="29" y1="176" x2="32" y2="176"/>
        <line x1="32" y1="165" x2="32" y2="164"/>
        <line x1="32" y1="164" x2="34" y2="164"/>
        <line x1="34" y1="164" x2="34" y2="177"/>
        <line x1="32" y1="177" x2="34" y2="177"/>
        <line x1="12" y1="160" x2="15" y2="160"/>
        <line x1="15" y1="160" x2="15" y2="165"/>
        <line x1="15" y1="165" x2="12" y2="165"/>
        <line x1="15" y1="176" x2="15" y2="180"/>
        <line x1="15" y1="176" x2="12" y2="176"/>
        <line x1="12" y1="165" x2="12" y2="164"/>
        <line x1="12" y1="164" x2="10" y2="164"/>
        <line x1="10" y1="164" x2="10" y2="177"/>
        <line x1="12" y1="177" x2="10" y2="177"/>
        <line x1="15" y1="140" x2="29" y2="140"/>
        <line x1="12" y1="176" x2="12" y2="177"/>
        <line x1="32" y1="176" x2="32" y2="177"/>
        <line x1="32" y1="160" x2="32" y2="143"/>
        <line x1="12" y1="143" x2="12" y2="160"/>
        <circle cx="17" cy="148" r="1"/>
        <circle cx="27" cy="148" r="1"/>
        <line x1="22" y1="200" x2="18" y2="203"/>
        <line x1="18" y1="203" x2="22" y2="205"/>
        <line x1="22" y1="200" x2="25" y2="200"/>
        <line x1="25" y1="200" x2="25" y2="193"/>
        <line x1="25" y1="193" x2="29" y2="193"/>
        <line x1="29" y1="193" x2="29" y2="190"/>
        <line x1="35" y1="190" x2="35" y2="193"/>
        <line x1="35" y1="193" x2="39" y2="193"/>
        <line x1="22" y1="205" x2="25" y2="205"/>
        <line x1="25" y1="207" x2="25" y2="210"/>
        <line x1="25" y1="210" x2="25" y2="227"/>
        <line x1="31" y1="227" x2="31" y2="210"/>
        <line x1="31" y1="218" x2="28" y2="218"/>
        <line x1="28" y1="218" x2="28" y2="215"/>
        <line x1="28" y1="215" x2="31" y2="215"/>
        <line x1="31" y1="223" x2="28" y2="223"/>
        <line x1="28" y1="223" x2="28" y2="226"/>
        <line x1="28" y1="226" x2="31" y2="226"/>
        <line x1="31" y1="227" x2="31" y2="230"/>
        <line x1="31" y1="230" x2="25" y2="230"/>
        <line x1="25" y1="230" x2="25" y2="227"/>
        <line x1="39" y1="193" x2="39" y2="197"/>
        <line x1="39" y1="203" x2="39" y2="210"/>
        <line x1="39" y1="210" x2="31" y2="210"/>
        <circle cx="32" cy="189" r="1"/>
        <line x1="39" y1="197" x2="39" y2="203"/>
        <path d="M35,189 A3,3 0 0,0 29,189 "/>
        <line x1="29" y1="189" x2="29" y2="190"/>
        <line x1="35" y1="190" x2="35" y2="189"/>
        <line x1="25" y1="205" x2="25" y2="207"/>
        <line x1="107" y1="148" x2="105" y2="148"/>
        <line x1="105" y1="153" x2="107" y2="153"/>
        <line x1="105" y1="153" x2="105" y2="158"/>
        <line x1="107" y1="153" x2="107" y2="158"/>
        <line x1="105" y1="148" x2="105" y2="143"/>
        <line x1="107" y1="148" x2="107" y2="143"/>
        <line x1="157" y1="148" x2="159" y2="148"/>
        <line x1="157" y1="153" x2="159" y2="153"/>
        <line x1="157" y1="148" x2="157" y2="143"/>
        <line x1="159" y1="148" x2="159" y2="143"/>
        <line x1="157" y1="153" x2="157" y2="158"/>
        <line x1="159" y1="153" x2="159" y2="158"/>
    </g>
</svg>
